<?xml version="1.0" encoding="utf-8"?>
<!-- Generator: Adobe Illustrator 19.2.1, SVG Export Plug-In . SVG Version: 6.00 Build 0)  -->
<svg version="1.1" id="layer" xmlns="http://www.w3.org/2000/svg" xmlns:xlink="http://www.w3.org/1999/xlink" x="0px" y="0px"
	 viewBox="0 0 652 652" style="enable-background:new 0 0 652 652;" xml:space="preserve">
<style type="text/css">
	.st0{fill:#ED6F41;}
	.st1{fill:#B2D0E1;}
	.st2{fill:#72AAC9;}
	.st3{fill:#3383B1;}
	.st4{fill:#00649E;}
	.st5{fill:#174478;}
</style>
<path class="st0" d="M383.9,258.6c8.7,0,15.7-6.9,15.7-15.7s-6.9-15.7-15.7-15.7s-15.7,6.9-15.7,15.7S375.2,258.6,383.9,258.6"/>
<path class="st1" d="M555.7,269.2c-0.5,1.4-2.3,2.3-3.7,1.8l-22.1-7.8c-1.4-0.5-2.3-2.3-1.8-3.7l7.8-22.1c0.5-1.4,2.3-2.3,3.7-1.8
	l22.1,7.8c1.4,0.5,2.3,2.3,1.8,3.7L555.7,269.2"/>
<path class="st2" d="M596.7,307.9c-0.5,1.4-2.3,2.3-3.7,1.8l-22.1-7.8c-1.4-0.5-2.3-2.3-1.8-3.7l7.8-22.1c0.5-1.4,2.3-2.3,3.7-1.8
	l22.1,7.8c1.4,0.5,2.3,2.3,1.8,3.7L596.7,307.9"/>
<path class="st2" d="M552.5,328.6c-0.5,1.4-2.3,2.3-3.7,1.8l-22.1-7.8c-1.4-0.5-2.3-2.3-1.8-3.7l7.8-22.1c0.5-1.4,2.3-2.3,3.7-1.8
	l22.1,7.8c1.4,0.5,2.3,2.3,1.8,3.7L552.5,328.6"/>
<path class="st3" d="M593.4,361.7c-0.5,1.4-2.3,2.3-3.7,1.8l-22.1-7.8c-1.4-0.5-2.3-2.3-1.8-3.7l7.8-22.1c0.5-1.4,2.3-2.3,3.7-1.8
	l22.1,7.8c1.4,0.5,2.3,2.3,1.8,3.7L593.4,361.7"/>
<path class="st4" d="M582.4,394c-0.5,1.4-2.3,2.3-3.7,1.8l-22.1-7.8c-1.4-0.5-2.3-2.3-1.8-3.7l7.8-22.1c0.5-1.4,2.3-2.3,3.7-1.8
	l22.1,7.8c1.4,0.5,2.3,2.3,1.8,3.7L582.4,394"/>
<path class="st3" d="M549.7,382.5c-0.5,1.4-2.3,2.3-3.7,1.8l-22.1-7.8c-1.4-0.5-2.3-2.3-1.8-3.7l7.8-22.1c0.5-1.4,2.3-2.3,3.7-1.8
	l22.1,7.8c1.4,0.5,2.3,2.3,1.8,3.7L549.7,382.5"/>
<polyline class="st5" points="605.9,395.8 602.2,395.8 602.2,405 599.4,405 599.4,395.8 595.7,395.8 595.7,393.5 605.9,393.5 
	605.9,395.8 "/>
<polyline class="st5" points="620.2,405 617.4,405 617.4,397.2 615.1,402.3 612.8,402.3 610.9,397.2 610.9,405 607.7,405 
	607.7,393.5 611.4,393.5 614.2,399.5 616.9,393.5 620.2,393.5 620.2,405 "/>
<path class="st5" d="M489.8,282.1c-8.3-9.2-19.8-13.4-34.5-13.4l0,0c-13.8,0-25.3,4.6-34.1,14.3c-8.7,9.2-12.9,21.6-12.9,36.4
	c0,15.7,4.1,28.1,12.4,37.3c8.3,9.2,19.8,13.8,34.5,14.3l0,0c14.7,0,25.8-4.6,34.1-13.8c8.3-9.2,12.4-21.6,12.4-37.3
	C502.3,303.7,498.1,291.3,489.8,282.1 M472.3,343.3c-4.1,5.5-9.7,8.3-17,8.3l0,0c-15.7,0-23-10.6-23-32.2c0-10.1,1.8-17.5,6.4-23.5
	c4.1-5.5,9.7-8.3,16.6-8.3l0,0c15.7,0,23,10.6,23,31.8C478.3,330,476.5,337.8,472.3,343.3"/>
<path class="st5" d="M398.7,268.3h-35.5l0,0c-3.7,0-6.4,4.6-6.4,9.7c0,5.5,2.8,9.7,6.4,9.7l0,0h12.4v75.1l0,0l0,0l0,0
	c0,3.7,5.1,6.9,11.5,6.9c6.4,0,11.5-3.2,11.5-6.9l0,0V268.3"/>
<path class="st5" d="M313.5,269.2h-86.1c-17,0.5-32.7,9.2-32.7,27.6c0,15.7,8.7,23,20.3,28.5c7.8,4.1,15.2,5.1,18.4,11.1
	c2.8,6,0.9,14.7-9.7,15.2h-29c-8.3,0-12.4-2.3-12.4-11.5V318c0-18.9-3.2-31.8-10.1-38.7c-6.4-6.4-16.6-10.1-29.9-10.6l0,0h-17
	c-3.7,0-6.4,4.1-6.4,9.7s2.8,9.7,6.4,9.7h12.4c1.4,0,2.8,0,4.1,0l0,0c12,0.9,17.5,6.9,17.5,17c-3.7-0.9-6.9-1.4-9.7-1.4
	s-5.5,0-8.3,0.5c-11.5,0.9-20.7,4.1-28.1,9.2c-8.3,6.4-12.9,15.2-12.9,26.7c0,1.8,0,3.7,0.5,5.5c-5.5,5.5-11.1,6-27.2,6
	c-19.3,0-29.5-10.1-29.5-30.9c0-10.1,2.8-18,7.4-23.9c5.1-6,12-8.7,18.9-8.3h27.2l0,0l0,0l0,0l0,0c3.2,0,6-4.6,6-9.7
	c0-5.1-2.8-9.7-6-9.7l0,0H97H71.3c-14.3,0-27.6,5.1-36.8,14.7c-9.7,9.2-14.3,21.6-14.3,37.3c0,15.7,4.6,28.1,13.4,36.8
	c8.7,8.7,20.7,12.9,35.9,13.4c20.3,0.5,28.1-0.9,39.6-8.3l0.5,0.5c6,5.5,14.3,7.8,24.9,7.8c1.8,0,4.6,0,6.9-0.5
	c4.1-0.5,8.7-1.4,12-2.8c5.1-2.3,10.1-5.5,12.4-8.7c2.8,4.6,8.3,12,20.7,12h38.2c8.3-0.9,15.2-3.2,20.3-6.4
	c7.4-4.6,12.4-13.8,12.4-23c0-15.7-9.2-21.6-20.7-27.2c-7.8-4.1-14.3-5.5-18.4-11.1c-4.1-5.5-1.4-14.3,8.7-14.3H267v118.8l0,0
	c0,4.1,5.1,7.4,11.5,7.4c6.4,0,11.5-3.2,11.5-7.4l0,0l0,0v-41c6,2.8,12.4,4.1,19.8,4.1h2.3c13.4-0.5,24.4-4.6,32.7-12.9
	c8.7-8.7,12.9-21.2,12.9-36.8C359.1,286.2,344.3,269.2,313.5,269.2 M159.7,331.8c0,12.9-6,19.3-18,20.3c-0.9,0-1.8,0-2.8,0
	c-10.1,0-15.2-4.1-15.2-12.9c0-9.7,6-15.7,18-17c2.8-0.5,6-0.5,9.2-0.5c1.8,0,4.6,0.5,8.7,1.4V331.8z M328.2,343.8
	c-3.2,3.7-8.3,6-14.7,6.9c-2.3,0.5-4.6,0.5-7.4,0.5c-5.5,0-10.1-1.8-14.3-5.1v-57.6h14.3c2.8,0,5.1,0,7.4,0.5
	c6.9,0.9,11.5,3.2,15.2,6.9c4.6,4.6,6.9,12.9,6.9,24.4C335.1,330.9,332.8,338.7,328.2,343.8"/>
</svg>
