<svg id="visual" viewBox="0 0 900 600" width="900" height="600" xmlns="http://www.w3.org/2000/svg" xmlns:xlink="http://www.w3.org/1999/xlink" version="1.1"><g stroke-width="1" stroke-linejoin="bevel"><path d="M385 290L319 321L383 362Z" fill="#001b30" stroke="#001b30"></path><path d="M319 321L280 384L383 362Z" fill="#00101c" stroke="#00101c"></path><path d="M385 290L339 199L319 321Z" fill="#005fe7" stroke="#005fe7"></path><path d="M319 321L228 284L280 384Z" fill="#001b30" stroke="#001b30"></path><path d="M339 199L228 284L319 321Z" fill="#005fe7" stroke="#005fe7"></path><path d="M385 290L375 170L339 199Z" fill="#004089" stroke="#004089"></path><path d="M163 172L115 326L228 284Z" fill="#002545" stroke="#002545"></path><path d="M383 362L517 277L385 290Z" fill="#005fe7" stroke="#005fe7"></path><path d="M385 290L517 277L375 170Z" fill="#0066ff" stroke="#0066ff"></path><path d="M196 401L292 479L280 384Z" fill="#005fe7" stroke="#005fe7"></path><path d="M280 384L292 479L383 362Z" fill="#0050b7" stroke="#0050b7"></path><path d="M383 362L510 410L517 277Z" fill="#001b30" stroke="#001b30"></path><path d="M507 468L510 410L383 362Z" fill="#00101c" stroke="#00101c"></path><path d="M228 284L196 401L280 384Z" fill="#00101c" stroke="#00101c"></path><path d="M292 479L375 512L383 362Z" fill="#005fe7" stroke="#005fe7"></path><path d="M375 512L507 468L383 362Z" fill="#004089" stroke="#004089"></path><path d="M510 410L600 298L517 277Z" fill="#0048a0" stroke="#0048a0"></path><path d="M523 160L428 121L375 170Z" fill="#0066ff" stroke="#0066ff"></path><path d="M224 103L163 172L339 199Z" fill="#003872" stroke="#003872"></path><path d="M517 277L523 160L375 170Z" fill="#0066ff" stroke="#0066ff"></path><path d="M196 401L236 526L292 479Z" fill="#005fe7" stroke="#005fe7"></path><path d="M292 479L329 600L375 512Z" fill="#0048a0" stroke="#0048a0"></path><path d="M599 406L600 298L510 410Z" fill="#005fe7" stroke="#005fe7"></path><path d="M517 277L614 163L523 160Z" fill="#002e5c" stroke="#002e5c"></path><path d="M228 284L115 326L196 401Z" fill="#004089" stroke="#004089"></path><path d="M196 401L101 523L236 526Z" fill="#0066ff" stroke="#0066ff"></path><path d="M163 172L228 284L339 199Z" fill="#001b30" stroke="#001b30"></path><path d="M513 600L568 461L507 468Z" fill="#003872" stroke="#003872"></path><path d="M507 468L568 461L510 410Z" fill="#003872" stroke="#003872"></path><path d="M224 103L339 199L267 63Z" fill="#002545" stroke="#002545"></path><path d="M568 461L599 406L510 410Z" fill="#005fe7" stroke="#005fe7"></path><path d="M267 63L339 199L375 170Z" fill="#0050b7" stroke="#0050b7"></path><path d="M583 102L523 110L523 160Z" fill="#005fe7" stroke="#005fe7"></path><path d="M523 160L523 110L428 121Z" fill="#003872" stroke="#003872"></path><path d="M428 121L267 63L375 170Z" fill="#0058cf" stroke="#0058cf"></path><path d="M236 526L329 600L292 479Z" fill="#004089" stroke="#004089"></path><path d="M375 512L406 600L507 468Z" fill="#0048a0" stroke="#0048a0"></path><path d="M329 600L406 600L375 512Z" fill="#00101c" stroke="#00101c"></path><path d="M326 0L267 63L428 121Z" fill="#004089" stroke="#004089"></path><path d="M115 326L93 407L196 401Z" fill="#001b30" stroke="#001b30"></path><path d="M600 298L614 163L517 277Z" fill="#0048a0" stroke="#0048a0"></path><path d="M696 178L614 163L600 298Z" fill="#0050b7" stroke="#0050b7"></path><path d="M101 523L236 600L236 526Z" fill="#005fe7" stroke="#005fe7"></path><path d="M236 526L236 600L329 600Z" fill="#003872" stroke="#003872"></path><path d="M105 73L73 206L163 172Z" fill="#005fe7" stroke="#005fe7"></path><path d="M163 172L73 206L115 326Z" fill="#0058cf" stroke="#0058cf"></path><path d="M115 326L0 337L93 407Z" fill="#004089" stroke="#004089"></path><path d="M105 73L163 172L224 103Z" fill="#002e5c" stroke="#002e5c"></path><path d="M731 413L723 306L599 406Z" fill="#003872" stroke="#003872"></path><path d="M406 600L513 600L507 468Z" fill="#0048a0" stroke="#0048a0"></path><path d="M614 163L583 102L523 160Z" fill="#003872" stroke="#003872"></path><path d="M512 0L376 0L428 121Z" fill="#004089" stroke="#004089"></path><path d="M512 0L428 121L523 110Z" fill="#0050b7" stroke="#0050b7"></path><path d="M0 488L101 523L93 407Z" fill="#0066ff" stroke="#0066ff"></path><path d="M93 407L101 523L196 401Z" fill="#002e5c" stroke="#002e5c"></path><path d="M376 0L326 0L428 121Z" fill="#004089" stroke="#004089"></path><path d="M190 0L105 73L224 103Z" fill="#0050b7" stroke="#0050b7"></path><path d="M583 102L512 0L523 110Z" fill="#002e5c" stroke="#002e5c"></path><path d="M190 0L224 103L267 63Z" fill="#0048a0" stroke="#0048a0"></path><path d="M0 229L0 337L115 326Z" fill="#002e5c" stroke="#002e5c"></path><path d="M0 229L115 326L73 206Z" fill="#004089" stroke="#004089"></path><path d="M681 521L599 406L568 461Z" fill="#0066ff" stroke="#0066ff"></path><path d="M599 406L723 306L600 298Z" fill="#0048a0" stroke="#0048a0"></path><path d="M614 163L685 97L583 102Z" fill="#004089" stroke="#004089"></path><path d="M723 306L696 178L600 298Z" fill="#0066ff" stroke="#0066ff"></path><path d="M583 102L588 0L512 0Z" fill="#002e5c" stroke="#002e5c"></path><path d="M0 337L0 391L93 407Z" fill="#0048a0" stroke="#0048a0"></path><path d="M326 0L190 0L267 63Z" fill="#003872" stroke="#003872"></path><path d="M0 96L0 229L73 206Z" fill="#004089" stroke="#004089"></path><path d="M638 600L681 521L568 461Z" fill="#0058cf" stroke="#0058cf"></path><path d="M681 521L731 413L599 406Z" fill="#002545" stroke="#002545"></path><path d="M513 600L638 600L568 461Z" fill="#0058cf" stroke="#0058cf"></path><path d="M101 523L83 600L236 600Z" fill="#002e5c" stroke="#002e5c"></path><path d="M0 600L83 600L101 523Z" fill="#0050b7" stroke="#0050b7"></path><path d="M763 89L685 97L696 178Z" fill="#005fe7" stroke="#005fe7"></path><path d="M696 178L685 97L614 163Z" fill="#004089" stroke="#004089"></path><path d="M0 391L0 488L93 407Z" fill="#005fe7" stroke="#005fe7"></path><path d="M685 97L588 0L583 102Z" fill="#0050b7" stroke="#0050b7"></path><path d="M190 0L117 0L105 73Z" fill="#0050b7" stroke="#0050b7"></path><path d="M105 73L0 96L73 206Z" fill="#005fe7" stroke="#005fe7"></path><path d="M0 0L0 96L105 73Z" fill="#0050b7" stroke="#0050b7"></path><path d="M821 285L793 232L723 306Z" fill="#002e5c" stroke="#002e5c"></path><path d="M723 306L793 232L696 178Z" fill="#004089" stroke="#004089"></path><path d="M0 488L0 600L101 523Z" fill="#00101c" stroke="#00101c"></path><path d="M638 600L724 600L681 521Z" fill="#0050b7" stroke="#0050b7"></path><path d="M681 521L828 486L731 413Z" fill="#004089" stroke="#004089"></path><path d="M839 381L821 285L723 306Z" fill="#0048a0" stroke="#0048a0"></path><path d="M839 381L723 306L731 413Z" fill="#005fe7" stroke="#005fe7"></path><path d="M793 232L763 89L696 178Z" fill="#0058cf" stroke="#0058cf"></path><path d="M685 97L722 0L588 0Z" fill="#0050b7" stroke="#0050b7"></path><path d="M900 201L763 89L793 232Z" fill="#0050b7" stroke="#0050b7"></path><path d="M828 486L839 381L731 413Z" fill="#00101c" stroke="#00101c"></path><path d="M763 89L722 0L685 97Z" fill="#003872" stroke="#003872"></path><path d="M117 0L0 0L105 73Z" fill="#0050b7" stroke="#0050b7"></path><path d="M778 600L828 486L681 521Z" fill="#002545" stroke="#002545"></path><path d="M724 600L778 600L681 521Z" fill="#00101c" stroke="#00101c"></path><path d="M828 486L900 380L839 381Z" fill="#0066ff" stroke="#0066ff"></path><path d="M839 381L900 380L821 285Z" fill="#0050b7" stroke="#0050b7"></path><path d="M821 285L900 268L793 232Z" fill="#0048a0" stroke="#0048a0"></path><path d="M763 89L802 0L722 0Z" fill="#003872" stroke="#003872"></path><path d="M900 538L900 380L828 486Z" fill="#002545" stroke="#002545"></path><path d="M900 380L900 268L821 285Z" fill="#0066ff" stroke="#0066ff"></path><path d="M900 73L802 0L763 89Z" fill="#0058cf" stroke="#0058cf"></path><path d="M900 268L900 201L793 232Z" fill="#0048a0" stroke="#0048a0"></path><path d="M778 600L900 538L828 486Z" fill="#002e5c" stroke="#002e5c"></path><path d="M900 201L900 73L763 89Z" fill="#0048a0" stroke="#0048a0"></path><path d="M778 600L900 600L900 538Z" fill="#0066ff" stroke="#0066ff"></path><path d="M900 73L900 0L802 0Z" fill="#001b30" stroke="#001b30"></path></g></svg>