<svg id="visual" viewBox="0 0 900 600" width="900" height="600" xmlns="http://www.w3.org/2000/svg" xmlns:xlink="http://www.w3.org/1999/xlink" version="1.1"><path d="M0 85L13.7 80C27.3 75 54.7 65 82 70C109.3 75 136.7 95 163.8 101C191 107 218 99 245.2 90C272.3 81 299.7 71 327 79C354.3 87 381.7 113 409 124C436.3 135 463.7 131 491 124C518.3 117 545.7 107 573 103C600.3 99 627.7 101 654.8 98C682 95 709 87 736.2 80C763.3 73 790.7 67 818 64C845.3 61 872.7 61 886.3 61L900 61L900 0L886.3 0C872.7 0 845.3 0 818 0C790.7 0 763.3 0 736.2 0C709 0 682 0 654.8 0C627.7 0 600.3 0 573 0C545.7 0 518.3 0 491 0C463.7 0 436.3 0 409 0C381.7 0 354.3 0 327 0C299.7 0 272.3 0 245.2 0C218 0 191 0 163.8 0C136.7 0 109.3 0 82 0C54.7 0 27.3 0 13.7 0L0 0Z" fill="#6198ff"></path><path d="M0 169L13.7 180C27.3 191 54.7 213 82 220C109.3 227 136.7 219 163.8 218C191 217 218 223 245.2 223C272.3 223 299.7 217 327 216C354.3 215 381.7 219 409 228C436.3 237 463.7 251 491 258C518.3 265 545.7 265 573 262C600.3 259 627.7 253 654.8 268C682 283 709 319 736.2 336C763.3 353 790.7 351 818 339C845.3 327 872.7 305 886.3 294L900 283L900 59L886.3 59C872.7 59 845.3 59 818 62C790.7 65 763.3 71 736.2 78C709 85 682 93 654.8 96C627.7 99 600.3 97 573 101C545.7 105 518.3 115 491 122C463.7 129 436.3 133 409 122C381.7 111 354.3 85 327 77C299.7 69 272.3 79 245.2 88C218 97 191 105 163.8 99C136.7 93 109.3 73 82 68C54.7 63 27.3 73 13.7 78L0 83Z" fill="#3c80ff"></path><path d="M0 397L13.7 405C27.3 413 54.7 429 82 431C109.3 433 136.7 421 163.8 416C191 411 218 413 245.2 411C272.3 409 299.7 403 327 405C354.3 407 381.7 417 409 418C436.3 419 463.7 411 491 415C518.3 419 545.7 435 573 433C600.3 431 627.7 411 654.8 410C682 409 709 427 736.2 435C763.3 443 790.7 441 818 447C845.3 453 872.7 467 886.3 474L900 481L900 281L886.3 292C872.7 303 845.3 325 818 337C790.7 349 763.3 351 736.2 334C709 317 682 281 654.8 266C627.7 251 600.3 257 573 260C545.7 263 518.3 263 491 256C463.7 249 436.3 235 409 226C381.7 217 354.3 213 327 214C299.7 215 272.3 221 245.2 221C218 221 191 215 163.8 216C136.7 217 109.3 225 82 218C54.7 211 27.3 189 13.7 178L0 167Z" fill="#0066ff"></path><path d="M0 511L13.7 520C27.3 529 54.7 547 82 548C109.3 549 136.7 533 163.8 522C191 511 218 505 245.2 503C272.3 501 299.7 503 327 511C354.3 519 381.7 533 409 532C436.3 531 463.7 515 491 507C518.3 499 545.7 499 573 500C600.3 501 627.7 503 654.8 510C682 517 709 529 736.2 536C763.3 543 790.7 545 818 548C845.3 551 872.7 555 886.3 557L900 559L900 479L886.3 472C872.7 465 845.3 451 818 445C790.7 439 763.3 441 736.2 433C709 425 682 407 654.8 408C627.7 409 600.3 429 573 431C545.7 433 518.3 417 491 413C463.7 409 436.3 417 409 416C381.7 415 354.3 405 327 403C299.7 401 272.3 407 245.2 409C218 411 191 409 163.8 414C136.7 419 109.3 431 82 429C54.7 427 27.3 411 13.7 403L0 395Z" fill="#0059dd"></path><path d="M0 601L13.7 601C27.3 601 54.7 601 82 601C109.3 601 136.7 601 163.8 601C191 601 218 601 245.2 601C272.3 601 299.7 601 327 601C354.3 601 381.7 601 409 601C436.3 601 463.7 601 491 601C518.3 601 545.7 601 573 601C600.3 601 627.7 601 654.8 601C682 601 709 601 736.2 601C763.3 601 790.7 601 818 601C845.3 601 872.7 601 886.3 601L900 601L900 557L886.3 555C872.7 553 845.3 549 818 546C790.7 543 763.3 541 736.2 534C709 527 682 515 654.8 508C627.7 501 600.3 499 573 498C545.7 497 518.3 497 491 505C463.7 513 436.3 529 409 530C381.7 531 354.3 517 327 509C299.7 501 272.3 499 245.2 501C218 503 191 509 163.8 520C136.7 531 109.3 547 82 546C54.7 545 27.3 527 13.7 518L0 509Z" fill="#004cbb"></path></svg>